<?xml version="1.0" encoding="utf-8"?>
<!-- Generator: Adobe Illustrator 25.4.1, SVG Export Plug-In . SVG Version: 6.00 Build 0)  -->
<svg version="1.1" id="Warstwa_1" xmlns="http://www.w3.org/2000/svg" xmlns:xlink="http://www.w3.org/1999/xlink" x="0px" y="0px"
	 viewBox="0 0 154 223.3" style="enable-background:new 0 0 154 223.3;" xml:space="preserve">
<style type="text/css">
	.st0{fill:#68D372;}
</style>
<g>
	<path class="st0" d="M77,216.8v-6.5l0,0c-8.8,0-17.2-1.8-24.8-5c-11.5-4.9-21.3-13-28.2-23.3c-6.9-10.2-11-22.5-11-35.7V77
		c0-8.8,1.8-17.2,5-24.8C22.9,40.7,31,30.9,41.3,24C51.5,17,63.8,13,77,13l0,0c8.8,0,17.2,1.8,24.8,5c11.5,4.9,21.3,13,28.2,23.3
		c6.9,10.2,11,22.5,11,35.7v69.3c0,8.8-1.8,17.2-5,24.8c-4.9,11.5-13,21.3-23.3,28.2c-10.2,6.9-22.5,11-35.7,11V216.8v6.5
		c10.6,0,20.7-2.2,29.9-6.1c13.8-5.9,25.6-15.6,33.9-27.9c8.3-12.3,13.2-27.1,13.2-43V77c0-10.6-2.2-20.7-6.1-29.9
		C142,33.3,132.3,21.5,120,13.2S92.9,0,77,0l0,0C66.4,0,56.3,2.2,47.1,6.1C33.3,12,21.5,21.7,13.2,34S0,61.1,0,77v69.3
		c0,21.2,8.7,40.5,22.6,54.4c7,7,15.3,12.6,24.5,16.5s19.3,6.1,29.9,6.1l0,0V216.8z"/>
	<path class="st0" d="M77,91.4L77,91.4c6.8,0,12.3-5.5,12.3-12.3V55.7c0-6.8-5.5-12.3-12.3-12.3s-12.3,5.5-12.3,12.3v23.4
		C64.7,85.9,70.2,91.4,77,91.4z"/>
</g>
</svg>
