<?xml version="1.0" encoding="utf-8"?>
<!-- Generator: Adobe Illustrator 25.4.1, SVG Export Plug-In . SVG Version: 6.00 Build 0)  -->
<svg version="1.1" id="Warstwa_1" xmlns="http://www.w3.org/2000/svg" xmlns:xlink="http://www.w3.org/1999/xlink" x="0px" y="0px"
	 viewBox="0 0 41.3 41.3" style="enable-background:new 0 0 41.3 41.3;" xml:space="preserve">
<style type="text/css">
	.st0{fill:#68D372;}
</style>
<g>
	<g id="Linkedin-2">
		<path class="st0" d="M10.9,15.4h4.3v13.9h-4.3V15.4z M13.1,8.5c1.4,0,2.5,1.1,2.5,2.5s-1.1,2.5-2.5,2.5s-2.5-1.1-2.5-2.5l0,0
			C10.6,9.6,11.7,8.5,13.1,8.5"/>
		<path class="st0" d="M17.9,15.4H22v1.9h0.1c0.8-1.4,2.4-2.3,4.1-2.2c4.4,0,5.2,2.9,5.2,6.6v7.6h-4.3v-6.7c0-1.6,0-3.7-2.2-3.7
			s-2.6,1.7-2.6,3.6v6.9H18L17.9,15.4z"/>
	</g>
	<g>
		<path class="st0" d="M33.3,40.3v-1H8c-1.7,0-3.1-0.7-4.2-1.8S2,34.9,2,33.3V8c0-1.7,0.7-3.1,1.8-4.2C4.8,2.7,6.3,2,8,2h25.3
			c1.7,0,3.1,0.7,4.2,1.8c1.1,1.1,1.8,2.6,1.8,4.2v25.3c0,1.7-0.7,3.1-1.8,4.2c-1.1,1.1-2.6,1.8-4.2,1.8V40.3v1c4.4,0,8-3.6,8-8V8
			c0-4.4-3.6-8-8-8H8C3.6,0,0,3.6,0,8v25.3c0,4.4,3.6,8,8,8h25.3V40.3z"/>
	</g>
</g>
</svg>
