<?xml version="1.0" encoding="utf-8"?>
<!-- Generator: Adobe Illustrator 25.4.1, SVG Export Plug-In . SVG Version: 6.00 Build 0)  -->
<svg version="1.1" id="Warstwa_1" xmlns="http://www.w3.org/2000/svg" xmlns:xlink="http://www.w3.org/1999/xlink" x="0px" y="0px"
	 viewBox="0 0 33.6 46.3" style="enable-background:new 0 0 33.6 46.3;" xml:space="preserve">
<style type="text/css">
	.st0{fill:#68D372;}
</style>
<g>
	<path class="st0" d="M33.1,38.7c-0.1-4.5-2.1-6.6-5.2-8.1c0.9-2.4,7.8-21.6-4.8-28.7C18-1,10.8,1.2,9,4C5.9,5.9,0.7,16.4,6.7,30.1
		c-3.6,1.5-6,3.7-6.1,8.6c-0.1,5.3,0.8,6.6,0.9,6.8l0.1,0.2h15.2l0,0H32l0.1-0.2C32.3,45.3,33.2,43.9,33.1,38.7z M9.6,4.7l0.1-0.1
		l0.1-0.1c1.3-2.3,8-4.6,12.8-1.9C34.4,9.2,28,27.5,27,30.1c-0.2-0.1-0.4-0.2-0.6-0.3L26,29.6c-2.1-0.8-3.9-1.5-4.5-3.1
		c-0.4-1.2,0-2,0.1-2.2c1.7-1.5,3-3.6,3.4-5.9c0.7-0.2,0.9-0.8,1.3-1.7c0.5-1.3,0.2-2.7-0.6-3c-0.3-0.1-0.2-0.2-0.6,0v-0.6
		c0-3.1-3.9-3.3-7.4-3.4c-4.6-0.1-5.7-1.2-7-3l-0.5,0.2L9.9,7.5c-1.2,1.9-1.3,4.4-1.2,6.2c-0.3-0.1-0.1-0.5-0.4-0.4
		c-0.8,0.4-1.2,2.1-0.7,3.5c0.4,1,0.6,1.6,1.3,1.7c0.3,2.2,1.7,4.3,3.4,5.8c0.1,0.3,0.5,1.2,0.1,2.3c-0.6,1.5-2.4,2.3-4.5,3.1
		l-0.2,0.1C2,17,6.4,6.5,9.6,4.7z M16.8,29.3c-2,0-3.5-1.5-3.9-2c0.1-0.1,0.1-0.2,0.2-0.3c0.2-0.6,0.3-1.2,0.2-1.7
		c1.1,0.7,2.2,1.1,3.4,1.1h0.2c1.1,0,2.3-0.4,3.4-1.1c0,0.5,0,1,0.2,1.7c0,0.1,0.1,0.2,0.2,0.3C20.3,27.7,18.8,29.3,16.8,29.3z
		 M9.6,14.8c0,0-0.5-4.3,0.6-6.8c1.4,1.8,3.1,2.7,7.3,2.8c3.9,0.1,6.5,0.3,6.5,2.4v2h0.9c0.3-0.4,0.5-0.5,0.8-0.5
		c0.2,0.1,0.4,0.9,0,1.8c-0.3,0.8-0.8,1.2-1.1,1.2l0,0h-0.5v0.4c-0.3,3.6-3.9,7.4-7.1,7.4h-0.2c-2.8,0-6.7-3.5-7.1-7.4l-0.1-0.5
		l-0.5,0.1c-0.2,0-0.8-0.4-1.1-1.2c-0.3-0.9-0.2-1.7,0.1-1.8c0.2,0,0.4,0.2,0.7,0.5L9.6,14.8z M31.5,44.7H16.8l0,0H2.2
		c-0.2-0.5-0.8-2.1-0.6-6c0.1-4.6,2.4-6.5,6.1-8l0.4-0.2c0.9-0.4,1.8-0.7,2.6-1.2c-0.1,0.6,0,1.2,0.5,1.7c0.9,1.1,1.9,1.4,2.6,1.4
		c1.3,0,2.4-0.8,3.1-1.8c0.7,1,1.8,1.8,3.1,1.8c0.7,0,1.7-0.2,2.6-1.4c0.4-0.6,0.6-1.2,0.5-1.7c0.8,0.4,1.7,0.8,2.6,1.1l0.4,0.2
		c3.7,1.5,6,3.3,6.1,8C32.2,42.6,31.7,44.2,31.5,44.7z"/>
	<path class="st0" d="M33.1,38.7h0.5c-0.1-2.3-0.6-4.1-1.6-5.5s-2.3-2.4-3.9-3.1l-0.2,0.4l0.5,0.2c0.5-1.3,2.7-7.5,2.7-14
		c0-2.9-0.4-5.8-1.6-8.5c-1.2-2.7-3.1-5.1-6.2-6.8c-1.8-1-3.8-1.4-5.8-1.4s-3.9,0.4-5.4,1.1c-1.6,0.7-2.8,1.6-3.5,2.7L9,4.1L8.7,3.7
		C7.5,4.4,6.2,6.1,5.2,8.5S3.4,14,3.4,17.8c0,3.7,0.8,8.1,2.8,12.7l0.5-0.2l-0.2-0.5c-1.8,0.8-3.4,1.7-4.6,3.2
		c-1.1,1.4-1.8,3.3-1.9,5.8c0,0.4,0,0.7,0,1c0,4.5,0.9,5.8,1.1,6.1l0,0l0.1,0.2l0.1,0.2h15.4l0,0h15.4l0.3-0.4l0,0
		c0.2-0.3,1.1-1.6,1.1-6.1c0-0.3,0-0.6,0-1L33.1,38.7h-0.5c0,0.3,0,0.7,0,1c0,4.4-0.9,5.5-0.9,5.5l0.4,0.3l-0.4-0.3l-0.1,0.2
		l0.4,0.3v-0.5H16.8l0,0H1.6v0.5L2,45.4l-0.1-0.2l0,0c0,0-0.2-0.3-0.4-1.1c-0.2-0.8-0.4-2.2-0.4-4.4c0-0.3,0-0.6,0-1
		c0.1-2.4,0.7-4,1.6-5.2c1-1.2,2.4-2.1,4.2-2.9l0.5-0.2l-0.2-0.5c-2-4.6-2.7-8.7-2.7-12.3c0-3.6,0.7-6.6,1.7-8.9s2.2-3.8,3.1-4.3
		l0.1-0.1l0.1-0.1c0.5-0.8,1.6-1.7,3.1-2.3c1.5-0.6,3.2-1,5-1s3.7,0.4,5.3,1.3c2.8,1.6,4.6,3.8,5.7,6.3c1.1,2.5,1.5,5.3,1.5,8.1
		c0,6.4-2.2,12.4-2.7,13.7l-0.2,0.4l0.4,0.2c1.5,0.7,2.7,1.6,3.5,2.8c0.8,1.2,1.3,2.7,1.4,4.9L33.1,38.7z M9.6,4.7l0.2,0.4L9.9,5
		L10,4.9l0.1-0.2c0.3-0.6,1.3-1.4,2.7-1.9c1.3-0.6,3-0.9,4.7-0.9c1.6,0,3.3,0.3,4.8,1.2c2.6,1.5,4.3,3.6,5.3,5.9
		c1,2.4,1.4,5,1.4,7.6c0,6.1-2.1,12-2.6,13.3l0.5,0.2l0.2-0.5c-0.2-0.1-0.4-0.2-0.7-0.3L26,29.1c-1.1-0.4-2-0.8-2.7-1.2
		c-0.7-0.4-1.2-0.9-1.5-1.6c-0.1-0.3-0.2-0.6-0.2-0.9c0-0.5,0.2-0.9,0.2-1l-0.4-0.2l0.3,0.4c1.8-1.6,3.2-3.8,3.5-6.2l-0.5-0.1
		l0.1,0.5c0.5-0.1,0.8-0.4,1.1-0.8c0.2-0.4,0.4-0.8,0.6-1.3c0.2-0.5,0.3-1,0.3-1.5s-0.1-0.9-0.3-1.3S26,13.2,25.6,13l-0.2-0.1
		c-0.1,0-0.2-0.1-0.3-0.1c-0.2,0-0.3,0.1-0.3,0.1L24.6,13l0.2,0.4h0.5v-0.6c0-0.9-0.3-1.6-0.8-2.2c-0.8-0.8-1.9-1.2-3.2-1.4
		C20,9,18.7,9,17.4,8.9c-2.3-0.1-3.7-0.4-4.6-0.8c-0.9-0.5-1.4-1.1-2.1-2l-0.2-0.3L9.6,6.2L9.4,6.3L9,7l0.4,0.2L9,6.9
		c-1.1,1.7-1.3,3.7-1.3,5.4c0,0.4,0,0.8,0,1.1h0.5l0.2-0.5L8.3,13l0.1-0.1l-0.1-0.1l-0.1,0.1l0.1-0.1l-0.1,0.1l0.1-0.1l0,0l-0.1,0.1
		l0.1-0.1l0,0l0,0l0,0l0,0l0,0c0,0,0-0.1-0.1-0.2c0-0.1-0.1-0.1-0.2-0.2c-0.1-0.1-0.3-0.1-0.4-0.1c-0.1,0-0.2,0-0.3,0.1l0.2,0.5
		l-0.2-0.5c-0.5,0.2-0.7,0.6-0.9,1.1s-0.3,1-0.3,1.5s0.1,1,0.3,1.5s0.4,0.9,0.6,1.3c0.2,0.4,0.6,0.7,1.1,0.8l0.1-0.5l-0.5,0.1
		c0.4,2.3,1.8,4.6,3.6,6.1l0.3-0.4l-0.5,0.2c0.1,0.1,0.2,0.5,0.2,1c0,0.3,0,0.6-0.2,0.9c-0.2,0.6-0.7,1.1-1.5,1.6
		c-0.7,0.4-1.7,0.8-2.7,1.2l-0.2,0.1l0.2,0.5l0.5-0.2c-1.9-4.4-2.6-8.5-2.6-12c0-3.3,0.6-6.2,1.5-8.3c0.9-2.1,2-3.6,2.9-4l0,0
		L9.6,4.7L9.4,4.3C8.2,5,7,6.5,6.1,8.8c-0.9,2.3-1.6,5.3-1.6,8.7c0,3.7,0.7,7.9,2.7,12.4l0.2,0.4L8,30.1c1.1-0.4,2-0.8,2.9-1.3
		c0.8-0.5,1.5-1.1,1.9-2.1c0.2-0.5,0.2-0.9,0.2-1.3c0-0.7-0.2-1.2-0.3-1.4v-0.1l-0.1-0.1c-1.6-1.4-2.9-3.5-3.2-5.5L9.3,18L9,17.9
		c-0.2-0.1-0.3-0.1-0.5-0.3C8.3,17.4,8.2,17,8,16.5c-0.1-0.3-0.2-0.7-0.2-1.1s0.1-0.8,0.2-1.1c0.1-0.3,0.3-0.5,0.4-0.5l0,0l-0.1-0.2
		v0.3h0.1l-0.1-0.2V14v-0.4l-0.2,0.3L8.3,14v-0.4l-0.2,0.3l0.2-0.3l-0.4,0.2L8,13.9l0.2-0.3l-0.4,0.2L8,13.7l-0.3,0.1l0,0l0.2-0.1
		l-0.3,0.1l0,0c0,0,0,0.1,0.1,0.3c0.1,0.1,0.2,0.3,0.4,0.3l0.7,0.3v-0.8c0-0.3,0-0.7,0-1.1C8.8,11.2,9,9.4,9.9,8l0,0l0.2-0.4
		l0.3-0.1L10.2,7L9.8,7.3c0.6,0.9,1.3,1.7,2.4,2.3c1.1,0.6,2.6,0.9,5,0.9c1.7,0,3.6,0.1,4.9,0.5c0.7,0.2,1.2,0.5,1.5,0.8
		c0.3,0.4,0.5,0.8,0.5,1.5v0.6v0.8l0.7-0.4c0.1,0,0.2-0.1,0.2-0.1l0,0l-0.1-0.3v0.3H25l-0.1-0.3v0.3v-0.3l-0.1,0.3h0.1v-0.3
		l-0.1,0.3v-0.1l-0.1,0.1l0,0v-0.1l-0.1,0.1c0,0,0.1,0,0.2,0.1c0.2,0.1,0.3,0.2,0.4,0.4c0.1,0.2,0.2,0.5,0.2,0.9
		c0,0.3-0.1,0.7-0.2,1.1c-0.2,0.5-0.3,0.8-0.5,1.1c-0.2,0.2-0.2,0.3-0.4,0.3L24,18.2v0.3c-0.3,2.1-1.6,4.1-3.2,5.6l-0.1,0.1v0.1
		c-0.1,0.2-0.3,0.7-0.3,1.4c0,0.4,0.1,0.8,0.2,1.2c0.3,0.9,1,1.6,1.9,2.1c0.8,0.5,1.8,0.9,2.9,1.3l0.4,0.2c0.2,0.1,0.4,0.2,0.6,0.3
		l0.5,0.2l0.2-0.5c0.5-1.4,2.6-7.3,2.6-13.6c0-2.7-0.4-5.5-1.5-8s-2.9-4.8-5.8-6.4c-1.7-0.9-3.5-1.3-5.3-1.3c-1.9,0-3.6,0.4-5.1,1
		S9.4,3.6,8.9,4.6L8.8,4.7l0.4,0.2L9,4.5L8.9,4.6l0,0L9.6,4.7z M16.8,29.3v-0.5c-0.9,0-1.6-0.3-2.3-0.7c-0.6-0.4-1.1-0.9-1.2-1.1
		l-0.4,0.3l0.4,0.2c0-0.1,0.1-0.2,0.2-0.4c0.2-0.6,0.3-1.1,0.3-1.6c0-0.1,0-0.2,0-0.4h-0.5L13,25.5c1.1,0.7,2.4,1.2,3.6,1.2h0.2
		c1.2,0,2.5-0.4,3.6-1.1l-0.3-0.4h-0.5c0,0.1,0,0.2,0,0.4c0,0.5,0.1,1,0.3,1.5l0,0c0.1,0.2,0.1,0.3,0.2,0.4l0.5-0.2L20.2,27
		c-0.2,0.2-0.6,0.7-1.2,1.1c-0.6,0.4-1.4,0.7-2.3,0.7L16.8,29.3l-0.1,0.5c1.1,0,2.1-0.4,2.8-0.9s1.2-1,1.4-1.3l0.2-0.2L21,27.1
		c-0.1-0.1-0.1-0.2-0.1-0.3l0,0c-0.2-0.4-0.2-0.8-0.2-1.2c0-0.1,0-0.2,0-0.3l0.1-1L20,24.8c-1,0.6-2.1,1-3.1,1h-0.2
		c-1,0-2.1-0.4-3.1-1l-0.8-0.5l0.1,1c0,0.1,0,0.2,0,0.3c0,0.4-0.1,0.8-0.2,1.2c0,0.1-0.1,0.1-0.1,0.3l-0.1,0.3l0.2,0.3
		c0.2,0.2,0.7,0.8,1.4,1.3s1.7,0.9,2.8,0.9L16.8,29.3L16.8,29.3z M9.6,14.8l0.5-0.1c0,0-0.1-0.9-0.1-2.2c0-1.4,0.1-3.2,0.7-4.4
		l-0.5-0.2L9.8,8.2c0.8,1,1.6,1.7,2.8,2.2s2.7,0.7,4.9,0.8c1.9,0.1,3.6,0.1,4.6,0.4c0.5,0.1,0.9,0.3,1.1,0.6
		c0.2,0.2,0.3,0.5,0.3,0.9v2.5l1.6-0.1l0.1-0.2c0.1-0.1,0.2-0.2,0.3-0.3h0.1l0,0l0,0l0,0l0,0l0,0l0,0v-0.3V15l0,0v-0.3V15v-0.5
		L25.4,15l0.1-0.2l-0.2,0.1l0.1,0.1l0.1-0.2l-0.2,0.1l0,0l0,0l0,0l0,0l0,0c0,0,0.1,0.2,0.1,0.4c0,0.2,0,0.5-0.2,0.9
		c-0.1,0.4-0.3,0.6-0.4,0.7L24.6,17l0,0v0.1V17l0,0v0.1V17l0,0l0,0H24h-0.4l-0.1,0.8l0,0l0,0c-0.1,1.7-1.1,3.4-2.3,4.7
		c-1.3,1.3-2.9,2.2-4.2,2.2h-0.2c-1.2,0-2.8-0.8-4.1-2.1c-1.3-1.3-2.3-3-2.5-4.8l0,0l-0.1-0.6L10,16.7l-1,0.2l0.1,0.5v-0.5v0.2
		l0.1-0.2H9.1v0.2l0.1-0.2c0,0-0.1-0.1-0.3-0.2c-0.1-0.1-0.3-0.4-0.4-0.7c-0.1-0.3-0.2-0.6-0.2-0.8c0-0.2,0-0.3,0-0.3l0,0l0,0
		l-0.1-0.1L8.3,15l0.1-0.1l-0.1-0.1L8.4,15l-0.2-0.5V15v-0.2V15l0,0v-0.2V15l0,0l0,0l0,0l0,0l0,0c0,0,0.2,0.1,0.3,0.3l0.2,0.3
		l1.6-0.6v-0.4L9.6,14.8l-0.2-0.5l-0.9,0.3l0.2,0.5l0.4-0.3c-0.2-0.2-0.3-0.4-0.5-0.5S8.3,14.1,8,14.1H7.9H7.8
		c-0.3,0.1-0.4,0.3-0.5,0.5S7.2,15,7.2,15.3c0,0.4,0.1,0.8,0.2,1.2c0.2,0.5,0.4,0.8,0.7,1.1c0.1,0.1,0.3,0.2,0.4,0.3
		C8.6,18,8.8,18,9,18h0.1h0.1l0,0l0.5-0.1H9.2c0.2,2.1,1.3,4,2.7,5.4s3.2,2.4,4.8,2.4h0.2c1.8,0,3.6-1,5-2.5s2.4-3.4,2.6-5.3H24
		l0.5,0.1v-0.4L24,17.5V18h0.5v-0.5V18l0,0c0.4,0,0.6-0.2,0.9-0.4c0.3-0.3,0.5-0.6,0.7-1.1c0.2-0.4,0.2-0.9,0.2-1.2
		c0-0.2,0-0.5-0.1-0.7s-0.2-0.4-0.4-0.5h-0.1h-0.1h-0.1c-0.2,0-0.4,0.1-0.6,0.2c-0.2,0.1-0.4,0.3-0.5,0.5l0.4,0.3v-0.5h-0.3v-1.5
		c0-0.6-0.2-1.2-0.6-1.6c-0.6-0.6-1.5-0.9-2.5-1.1c-1.1-0.2-2.4-0.2-3.8-0.3c-2.1-0.1-3.5-0.3-4.5-0.7c-1-0.4-1.7-1-2.4-1.9
		l-0.5-0.7L9.9,7.6c-0.6,1.5-0.8,3.3-0.8,4.8c0,1.3,0.1,2.2,0.1,2.3L9.6,14.8l-0.2-0.5L9.6,14.8z M31.5,44.7v-0.5H16.8l0,0H2.2v0.5
		l0.5-0.2c-0.2-0.4-0.6-1.7-0.6-4.8c0-0.3,0-0.6,0-1c0.1-2.2,0.6-3.7,1.6-4.9c1-1.1,2.4-1.9,4.2-2.6L8.3,31c0.9-0.4,1.8-0.7,2.7-1.2
		l-0.2-0.4l-0.5-0.1c0,0.1,0,0.3,0,0.4c0,0.6,0.2,1.2,0.6,1.7c1,1.3,2.2,1.6,3,1.6c1.5,0,2.8-0.9,3.5-2L17,30.7L16.6,31
		c0.8,1.1,2,2,3.5,2c0.8,0,2-0.3,3-1.6c0.4-0.5,0.6-1.1,0.6-1.7c0-0.1,0-0.3,0-0.4l-0.5,0.1L23,29.8c0.8,0.4,1.7,0.8,2.7,1.2
		l0.4,0.2c1.8,0.7,3.2,1.5,4.2,2.6s1.5,2.6,1.6,4.9c0,0.3,0,0.6,0,0.9c0,3.2-0.5,4.5-0.6,4.8L31.5,44.7v-0.5V44.7l0.5,0.2
		c0.2-0.5,0.7-2,0.7-5.2c0-0.3,0-0.6,0-1c-0.1-2.4-0.7-4.2-1.8-5.5s-2.7-2.2-4.6-2.9l-0.4-0.2c-0.9-0.4-1.8-0.7-2.5-1.1l-0.9-0.5
		l0.1,1c0,0.1,0,0.2,0,0.3c0,0.4-0.1,0.7-0.4,1.1c-0.8,1-1.6,1.2-2.2,1.2c-1,0-2.1-0.7-2.7-1.6l-0.4-0.6l-0.4,0.6
		c-0.6,0.9-1.7,1.6-2.7,1.6c-0.6,0-1.4-0.2-2.2-1.2c-0.3-0.4-0.4-0.7-0.4-1.1c0-0.1,0-0.2,0-0.3l0.1-1L10.4,29
		c-0.8,0.4-1.6,0.8-2.5,1.1l-0.4,0.2C5.6,31,4,31.9,2.9,33.2s-1.8,3.1-1.8,5.5c0,0.3,0,0.7,0,1c0,3.2,0.5,4.7,0.7,5.2l0.1,0.3h15
		l0,0h15l0.1-0.3L31.5,44.7z"/>
</g>
<circle class="st0" cx="16.8" cy="36.5" r="1.4"/>
<circle class="st0" cx="16.8" cy="40.6" r="1.4"/>
</svg>
