<?xml version="1.0" encoding="utf-8"?>
<!-- Generator: Adobe Illustrator 25.4.1, SVG Export Plug-In . SVG Version: 6.00 Build 0)  -->
<svg version="1.1" id="Warstwa_1" xmlns="http://www.w3.org/2000/svg" xmlns:xlink="http://www.w3.org/1999/xlink" x="0px" y="0px"
	 viewBox="0 0 41.3 41.3" style="enable-background:new 0 0 41.3 41.3;" xml:space="preserve">
<style type="text/css">
	.st0{fill:#68D372;}
</style>
<g>
	<g>
		<path id="Facebook-2" class="st0" d="M29.9,10.2H11.4c-0.6,0-1.1,0.5-1.1,1.1l0,0v18.5c0,0.6,0.5,1.1,1.1,1.1l0,0h9.9v-8h-2.7
			v-3.1h2.7v-2.3c0-2.7,1.6-4.1,4-4.1c0.8,0,1.6,0,2.4,0.1v2.8H26c-1.3,0-1.6,0.6-1.6,1.5v2h3.1L27.3,23h-2.7v8h5.3
			c0.6,0,1.1-0.5,1.1-1.1l0,0V11.4C31,10.8,30.5,10.2,29.9,10.2L29.9,10.2z"/>
	</g>
	<g>
		<path class="st0" d="M33.3,40.3v-1H8c-1.7,0-3.1-0.7-4.2-1.8S2,34.9,2,33.3V8c0-1.7,0.7-3.1,1.8-4.2C4.8,2.7,6.3,2,8,2h25.3
			c1.7,0,3.1,0.7,4.2,1.8c1.1,1.1,1.8,2.6,1.8,4.2v25.3c0,1.7-0.7,3.1-1.8,4.2c-1.1,1.1-2.6,1.8-4.2,1.8V40.3v1c4.4,0,8-3.6,8-8V8
			c0-4.4-3.6-8-8-8H8C3.6,0,0,3.6,0,8v25.3c0,4.4,3.6,8,8,8h25.3V40.3z"/>
	</g>
</g>
</svg>
