<?xml version="1.0" encoding="utf-8"?>
<!-- Generator: Adobe Illustrator 25.4.1, SVG Export Plug-In . SVG Version: 6.00 Build 0)  -->
<svg version="1.1" id="Warstwa_1" xmlns="http://www.w3.org/2000/svg" xmlns:xlink="http://www.w3.org/1999/xlink" x="0px" y="0px"
	 viewBox="0 0 132.9 44.3" style="enable-background:new 0 0 132.9 44.3;" xml:space="preserve">
<style type="text/css">
	.st0{fill:#FFFFFF;}
	.st1{fill:#FFFFFF;stroke:#000000;stroke-width:11;stroke-miterlimit:10;}
	.st2{fill:none;}
</style>
<g>
	<path d="M51.3,16.3v3.4h-7.8v4.8H50v3.4h-6.5v7.4h-4.4v-19H51.3z"/>
	<path d="M57.7,18.1c0,0.3-0.1,0.6-0.2,0.9c-0.1,0.3-0.3,0.5-0.5,0.7s-0.5,0.4-0.8,0.5s-0.6,0.2-1,0.2c-0.3,0-0.6-0.1-0.9-0.2
		c-0.3-0.1-0.5-0.3-0.8-0.5c-0.2-0.2-0.4-0.5-0.5-0.7c-0.1-0.3-0.2-0.6-0.2-0.9s0.1-0.6,0.2-0.9c0.1-0.3,0.3-0.5,0.5-0.8
		c0.2-0.2,0.5-0.4,0.8-0.5s0.6-0.2,0.9-0.2c0.3,0,0.7,0.1,1,0.2c0.3,0.1,0.6,0.3,0.8,0.5s0.4,0.5,0.5,0.8
		C57.7,17.4,57.7,17.7,57.7,18.1z M57.3,21.8v13.5h-4V21.8H57.3z"/>
	<path d="M60,35.3V21.8h2.4c0.2,0,0.4,0,0.5,0.1c0.1,0,0.2,0.1,0.3,0.2s0.2,0.2,0.2,0.3c0,0.1,0.1,0.3,0.1,0.4l0.2,1.3
		c0.5-0.8,1.1-1.4,1.7-1.8s1.3-0.7,2-0.7c0.6,0,1.1,0.1,1.5,0.4l-0.5,3c0,0.2-0.1,0.3-0.2,0.4s-0.2,0.1-0.4,0.1
		c-0.1,0-0.3,0-0.5-0.1c-0.2,0-0.5-0.1-0.8-0.1c-1.1,0-1.9,0.6-2.5,1.7v8.3H60z"/>
	<path d="M70.3,35.3V21.8h2.5c0.3,0,0.5,0.1,0.6,0.2c0.2,0.1,0.3,0.3,0.4,0.5l0.2,0.7c0.2-0.2,0.5-0.5,0.7-0.6
		c0.2-0.2,0.5-0.4,0.8-0.5s0.6-0.3,0.9-0.3c0.3-0.1,0.7-0.1,1.1-0.1c0.8,0,1.5,0.2,2,0.6s0.9,1,1.2,1.7c0.2-0.4,0.5-0.8,0.8-1.1
		c0.3-0.3,0.7-0.5,1.1-0.7s0.8-0.3,1.2-0.4c0.4-0.1,0.8-0.1,1.3-0.1c0.8,0,1.5,0.1,2.1,0.3c0.6,0.2,1.1,0.6,1.5,1s0.7,1,0.9,1.6
		c0.2,0.6,0.3,1.4,0.3,2.2v8.6h-4v-8.6c0-1.4-0.6-2.1-1.8-2.1c-0.5,0-1,0.2-1.4,0.5c-0.4,0.4-0.5,0.9-0.5,1.6v8.6h-4v-8.6
		c0-0.8-0.2-1.3-0.5-1.6c-0.3-0.3-0.8-0.5-1.3-0.5c-0.4,0-0.7,0.1-1,0.2c-0.3,0.2-0.6,0.4-0.9,0.7v9.8h-4.2V35.3z"/>
	<path d="M92.2,35.3V15.8h4v7.4c0.5-0.5,1.1-0.9,1.7-1.2s1.4-0.5,2.3-0.5c0.7,0,1.4,0.2,2,0.5s1.1,0.8,1.6,1.3
		c0.4,0.6,0.8,1.3,1,2.2c0.2,0.9,0.4,1.8,0.4,2.9c0,1-0.1,2-0.4,2.8c-0.3,0.9-0.7,1.6-1.2,2.2s-1.1,1.1-1.8,1.5
		c-0.7,0.4-1.5,0.5-2.4,0.5c-0.4,0-0.8,0-1.1-0.1c-0.3-0.1-0.6-0.2-0.9-0.3s-0.5-0.3-0.7-0.5s-0.4-0.4-0.6-0.7L96,34.5
		c-0.1,0.3-0.2,0.5-0.3,0.6c-0.2,0.1-0.4,0.2-0.6,0.2H92.2z M98.8,24.6c-0.3,0-0.6,0-0.8,0.1c-0.2,0.1-0.5,0.1-0.7,0.2
		s-0.4,0.2-0.6,0.4c-0.2,0.2-0.3,0.3-0.5,0.6v5.7c0.3,0.3,0.6,0.6,1,0.7c0.4,0.1,0.7,0.2,1.1,0.2s0.7-0.1,1-0.2
		c0.3-0.1,0.6-0.4,0.8-0.7c0.2-0.3,0.4-0.8,0.5-1.3s0.2-1.2,0.2-1.9c0-0.7-0.1-1.3-0.2-1.8s-0.3-0.9-0.4-1.2
		c-0.2-0.3-0.4-0.5-0.7-0.6C99.4,24.7,99.1,24.6,98.8,24.6z"/>
	<path d="M112.6,21.6c0.9,0,1.7,0.1,2.5,0.4s1.4,0.7,1.9,1.2s1,1.2,1.3,2s0.5,1.6,0.5,2.6c0,0.3,0,0.6,0,0.7c0,0.2-0.1,0.3-0.1,0.5
		c-0.1,0.1-0.2,0.2-0.3,0.2c-0.1,0-0.3,0.1-0.5,0.1H110c0.1,1.1,0.5,2,1,2.5c0.6,0.5,1.3,0.8,2.2,0.8c0.5,0,0.9-0.1,1.2-0.2
		c0.3-0.1,0.6-0.2,0.9-0.4c0.3-0.1,0.5-0.3,0.7-0.4s0.5-0.2,0.7-0.2c0.3,0,0.6,0.1,0.7,0.4l1.2,1.4c-0.4,0.5-0.9,0.9-1.4,1.2
		s-1,0.5-1.5,0.7s-1,0.3-1.5,0.4c-0.5,0.1-1,0.1-1.5,0.1c-0.9,0-1.8-0.2-2.7-0.5c-0.8-0.3-1.6-0.8-2.2-1.4c-0.6-0.6-1.1-1.4-1.5-2.3
		c-0.4-0.9-0.5-2-0.5-3.2c0-0.9,0.2-1.8,0.5-2.6c0.3-0.8,0.8-1.5,1.3-2.1c0.6-0.6,1.3-1.1,2.1-1.4C110.7,21.7,111.6,21.6,112.6,21.6
		z M112.7,24.4c-0.8,0-1.4,0.2-1.8,0.7c-0.4,0.4-0.7,1.1-0.9,1.9h5.1c0-0.3,0-0.6-0.1-0.9s-0.2-0.6-0.4-0.8
		c-0.2-0.2-0.4-0.4-0.7-0.6C113.5,24.4,113.1,24.4,112.7,24.4z"/>
	<path d="M126.3,21.6c0.9,0,1.7,0.1,2.5,0.4c0.7,0.3,1.4,0.7,1.9,1.2s1,1.2,1.3,2s0.5,1.6,0.5,2.6c0,0.3,0,0.6,0,0.7
		c0,0.2-0.1,0.3-0.1,0.5c-0.1,0.1-0.2,0.2-0.3,0.2s-0.3,0.1-0.5,0.1h-7.8c0.1,1.1,0.5,2,1,2.5c0.6,0.5,1.3,0.8,2.2,0.8
		c0.5,0,0.9-0.1,1.2-0.2c0.3-0.1,0.6-0.2,0.9-0.4c0.3-0.1,0.5-0.3,0.7-0.4s0.5-0.2,0.7-0.2c0.3,0,0.6,0.1,0.7,0.4l1.2,1.4
		c-0.4,0.5-0.9,0.9-1.4,1.2s-1,0.5-1.5,0.7s-1,0.3-1.5,0.4c-0.5,0.1-1,0.1-1.5,0.1c-0.9,0-1.8-0.2-2.7-0.5c-0.8-0.3-1.6-0.8-2.2-1.4
		c-0.6-0.6-1.1-1.4-1.5-2.3c-0.4-0.9-0.5-2-0.5-3.2c0-0.9,0.2-1.8,0.5-2.6c0.3-0.8,0.8-1.5,1.3-2.1c0.6-0.6,1.3-1.1,2.1-1.4
		C124.4,21.7,125.3,21.6,126.3,21.6z M126.4,24.4c-0.8,0-1.4,0.2-1.8,0.7c-0.4,0.4-0.7,1.1-0.9,1.9h5.1c0-0.3,0-0.6-0.1-0.9
		s-0.2-0.6-0.4-0.8c-0.2-0.2-0.4-0.4-0.7-0.6C127.2,24.4,126.8,24.4,126.4,24.4z"/>
	<path d="M29.8,25.9c-0.3,19.2-28.9,19.2-29.2,0C1,6.7,29.5,6.7,29.8,25.9z"/>
	<path class="st0" d="M26.6,25.4c-0.2,9.1-13.7,9.1-13.8,0C12.9,16.3,26.5,16.3,26.6,25.4z"/>
	<path d="M19.7,33.1c-10.2-0.2-10.2-15.4,0-15.5C29.9,17.8,29.9,32.9,19.7,33.1z M19.7,19.3c-8,0.1-8,12,0,12.1
		C27.7,31.3,27.7,19.4,19.7,19.3z"/>
	<polygon points="20.5,35.5 20.6,43.1 15.3,38.2 	"/>
	<path class="st0" d="M19.7,38.8c-17.4,1.1-17.4-24.7,0-23.6V38.8z"/>
	<path d="M20.6,39.7c-19.7,1.6-19.7-26.9,0-25.3V39.7z M18.3,16.1C3.5,16.4,4.1,38.4,18.9,38V16.1H18.3z"/>
	<path class="st0" d="M20.7,14.4c-0.2,9.3-14,9.3-14.1,0C6.8,5.1,20.6,5.1,20.7,14.4z"/>
	<path d="M13.7,22.3C3.3,22.1,3.3,6.6,13.7,6.4C24.1,6.6,24.1,22.1,13.7,22.3z M13.7,8.1c-8.2,0.1-8.2,12.3,0,12.4
		C21.8,20.4,21.8,8.3,13.7,8.1z"/>
	<path class="st1" d="M20.7,34.5"/>
	<path class="st0" d="M9.4,14.8H5.1c-0.5,0-1-0.4-1-1c0.2-0.9-0.6-3.5,1-3.5h4.3c0.5,0,1,0.4,1,1C10.2,12.2,10.9,14.8,9.4,14.8z"/>
	<path class="st0" d="M19,14.8h-4.3c-0.5,0-1-0.4-1-1c0.2-0.9-0.6-3.5,1-3.5H19c0.5,0,1,0.4,1,1C19.9,12.2,20.6,14.8,19,14.8z"/>
	<path class="st0" d="M10.4,12.2c0,0,1.6-1.5,3.4,0"/>
	<path d="M13.6,12.8c-1.2-1-2.3-0.1-2.4,0l-1-1.1c0.7-0.7,2.6-1.5,4.3,0L13.6,12.8z"/>
	<path d="M13.5,18.9c-0.4,0-0.8-0.1-1.3-0.2l0.4-1.4c1.9,0.6,2.7-1,2.8-1.2l1.3,0.6C16.5,17.6,15.3,18.9,13.5,18.9z"/>
	<path d="M17.6,11.6c-0.2,0.5-1,0.4-1-0.2c0-0.3,0.2-0.5,0.5-0.5c-0.7-0.4-1.9-0.1-1.9,1c0,1.6,2.5,1.6,2.5,0
		C17.7,11.8,17.6,11.7,17.6,11.6z"/>
	<path d="M9,11.5c-0.1,0.6-1,0.6-1-0.1c0-0.3,0.3-0.5,0.5-0.5c-0.7-0.4-1.9-0.1-1.9,1c0,1.6,2.5,1.6,2.5,0C9.1,11.7,9.1,11.6,9,11.5
		z"/>
	<path d="M14.1,26.9c-4.8,0-7.6-3.5-7.6-3.5l1.3-1l-0.7,0.5l0.7-0.5c0.2,0.2,4.3,5.3,11.4,1.4l0.8,1.5
		C17.9,26.4,15.9,26.9,14.1,26.9z"/>
	<path d="M14.7,31.2c-4.8,0-8.6-3.5-8.6-3.6l1.2-1.2c0.2,0.2,6.1,5.7,12,1.7l1,1.4C18.3,30.8,16.4,31.2,14.7,31.2z"/>
	<path d="M15.6,37.6c0,0,3.2,0.9,3.3-3l1,5.9L15.6,37.6z"/>
	<path d="M15.2,35.3c-4.5,0-8.2-3-8.4-3.2l1.1-1.3l-0.5,0.7l0.5-0.7c0.1,0,5.9,4.8,11.4,1.7l0.8,1.5C18.4,35,16.8,35.3,15.2,35.3z"
		/>
	<path class="st0" d="M19.3,9.4H8c-1.3,0-1-1.6-1-2.5c0-0.6,0.5-1,1-1h11.3c0.6,0,1,0.5,1,1C20.3,7.8,20.6,9.4,19.3,9.4z"/>
	<path d="M19.3,10H8c-1.7,0-1.7-1.9-1.6-3.1C6.4,6,7.1,5.3,8,5.3h11.3C20.2,5.3,21,6,21,6.9C21,8.2,21,10,19.3,10z M8,6.5
		c-0.7,0-0.5,1.7-0.4,1.9c0,0.2,0.2,0.4,0.4,0.4h11.3c0.7,0,0.5-1.7,0.4-1.9c-0.1-0.2-0.2-0.4-0.4-0.4C19.3,6.5,8,6.5,8,6.5z"/>
	<line class="st2" x1="9.1" y1="5.9" x2="9.1" y2="9.2"/>
	<rect x="8.5" y="5.9" width="1.2" height="3.3"/>
	<line class="st2" x1="11.5" y1="6" x2="11.5" y2="9.3"/>
	<rect x="10.8" y="6" width="1.2" height="3.3"/>
	<line class="st2" x1="13.7" y1="6" x2="13.7" y2="9.3"/>
	<rect x="13.1" y="6" width="1.2" height="3.3"/>
	<line class="st2" x1="16" y1="6.1" x2="16" y2="9.4"/>
	<rect x="15.4" y="6.1" width="1.2" height="3.3"/>
	<line class="st2" x1="18.4" y1="6.1" x2="18.4" y2="9.4"/>
	<rect x="17.8" y="6.1" width="1.2" height="3.3"/>
	<path class="st0" d="M8.2,5.8c0-0.4,4.8-9.6,10.9,0H8.2z"/>
	<path d="M20.2,6.4H7.6C7.4,5.1,9.2,2.1,12.3,1C15,0,18.2,2.8,20.2,6.4z M8.8,5.9L8.8,5.9L8.8,5.9z M9.2,5.2H18
		C15,0.6,11.2,1.5,9.2,5.2z"/>
	<path d="M9.9,14.3v-0.8H5.4c-0.2,0-0.3-0.2-0.3-0.3v-2.4c0-0.2,0.2-0.3,0.3-0.3h4.5c0.2,0,0.3,0.2,0.3,0.3v2.4
		c0,0.2-0.2,0.3-0.3,0.3V14.3V15c1,0,1.8-0.8,1.8-1.8v-2.4c0-1-0.8-1.8-1.8-1.8H5.4c-1,0-1.8,0.8-1.8,1.8v2.4c0,1,0.8,1.8,1.8,1.8
		h4.5V14.3z"/>
	<path d="M19.5,14.3v-0.8H15c-0.2,0-0.3-0.2-0.3-0.3v-2.4c0-0.2,0.2-0.3,0.3-0.3h4.5c0.2,0,0.3,0.2,0.3,0.3v2.4
		c0,0.2-0.2,0.3-0.3,0.3V14.3V15c1,0,1.8-0.8,1.8-1.8v-2.4c0-1-0.8-1.8-1.8-1.8H15c-1,0-1.8,0.8-1.8,1.8v2.4c0,1,0.8,1.8,1.8,1.8
		h4.5V14.3z"/>
</g>
</svg>
