<?xml version="1.0" encoding="utf-8"?>
<!-- Generator: Adobe Illustrator 25.4.1, SVG Export Plug-In . SVG Version: 6.00 Build 0)  -->
<svg version="1.1" id="Warstwa_1" xmlns="http://www.w3.org/2000/svg" xmlns:xlink="http://www.w3.org/1999/xlink" x="0px" y="0px"
	 viewBox="0 0 41.3 41.3" style="enable-background:new 0 0 41.3 41.3;" xml:space="preserve">
<style type="text/css">
	.st0{fill:#68D372;}
</style>
<g>
	<g>
		<path class="st0" d="M20.9,12.7c2.8,0,3.1,0,4.2,0.1c0.7,0,1.3,0.1,1.9,0.4c0.9,0.4,1.6,1.1,2,2c0.2,0.6,0.4,1.3,0.4,1.9
			c0.1,1.1,0.1,1.4,0.1,4.2s0,3.1-0.1,4.2c0,0.7-0.1,1.3-0.4,1.9c-0.4,0.9-1.1,1.6-2,2c-0.6,0.2-1.3,0.4-1.9,0.4
			c-1.1,0.1-1.4,0.1-4.2,0.1s-3.1,0-4.2-0.1c-0.7,0-1.3-0.1-1.9-0.4c-0.9-0.4-1.6-1.1-2-2c-0.2-0.6-0.4-1.3-0.4-1.9
			c-0.1-1.1-0.1-1.4-0.1-4.2s0-3.1,0.1-4.2c0-0.7,0.1-1.3,0.4-1.9c0.4-0.9,1.1-1.6,2-2c0.6-0.2,1.3-0.4,1.9-0.4
			C17.8,12.7,18.1,12.7,20.9,12.7 M20.9,10.8c-2.8,0-3.2,0-4.3,0.1c-0.9,0-1.7,0.2-2.5,0.5c-1.4,0.5-2.5,1.6-3.1,3.1
			c-0.3,0.8-0.5,1.7-0.5,2.5c0,1.1-0.1,1.5-0.1,4.3s0,3.2,0.1,4.3c0,0.9,0.2,1.7,0.5,2.5c0.5,1.4,1.6,2.5,3.1,3.1
			c0.8,0.3,1.7,0.5,2.5,0.5c1.1,0,1.5,0.1,4.3,0.1s3.2,0,4.3-0.1c0.9,0,1.7-0.2,2.5-0.5c1.4-0.5,2.5-1.6,3.1-3.1
			c0.3-0.8,0.5-1.7,0.5-2.5c0-1.1,0.1-1.5,0.1-4.3s0-3.2-0.1-4.3c0-0.9-0.2-1.7-0.5-2.5c-0.5-1.4-1.6-2.5-3.1-3.1
			c-0.8-0.3-1.7-0.5-2.5-0.5C24.1,10.8,23.7,10.8,20.9,10.8z"/>
		<path class="st0" d="M20.9,15.9c-2.9,0-5.3,2.4-5.3,5.3s2.4,5.3,5.3,5.3s5.3-2.4,5.3-5.3l0,0C26.2,18.3,23.8,15.9,20.9,15.9z
			 M20.9,24.7c-1.9,0-3.5-1.5-3.5-3.5s1.5-3.5,3.5-3.5c1.9,0,3.5,1.5,3.5,3.5l0,0C24.3,23.1,22.8,24.7,20.9,24.7L20.9,24.7z"/>
		<circle class="st0" cx="26.4" cy="15.7" r="1.2"/>
	</g>
	<g>
		<path class="st0" d="M33.3,40.3v-1H8c-1.7,0-3.1-0.7-4.2-1.8S2,34.9,2,33.3V8c0-1.7,0.7-3.1,1.8-4.2C4.8,2.7,6.3,2,8,2h25.3
			c1.7,0,3.1,0.7,4.2,1.8c1.1,1.1,1.8,2.6,1.8,4.2v25.3c0,1.7-0.7,3.1-1.8,4.2c-1.1,1.1-2.6,1.8-4.2,1.8V40.3v1c4.4,0,8-3.6,8-8V8
			c0-4.4-3.6-8-8-8H8C3.6,0,0,3.6,0,8v25.3c0,4.4,3.6,8,8,8h25.3V40.3z"/>
	</g>
</g>
</svg>
