<?xml version="1.0" encoding="utf-8"?>
<!-- Generator: Adobe Illustrator 25.4.1, SVG Export Plug-In . SVG Version: 6.00 Build 0)  -->
<svg version="1.1" id="Warstwa_1" xmlns="http://www.w3.org/2000/svg" xmlns:xlink="http://www.w3.org/1999/xlink" x="0px" y="0px"
	 viewBox="0 0 36 48" style="enable-background:new 0 0 36 48;" xml:space="preserve">
<style type="text/css">
	.st0{fill:#68D372;}
</style>
<path class="st0" d="M35,5h-9V4c0-0.6-0.4-1-1-1h-3.1c-0.6-2.1-2.7-3.4-4.9-2.9c-1.4,0.4-2.5,1.5-2.9,2.9H11c-0.6,0-1,0.4-1,1v1H1
	C0.4,5,0,5.4,0,6v41c0,0.6,0.4,1,1,1h34c0.6,0,1-0.4,1-1V6C36,5.4,35.6,5,35,5z M12,5h3c0.6,0,1-0.4,1-1c0-1.1,0.9-2,2-2s2,0.9,2,2
	c0,0.6,0.4,1,1,1h3v2H12V5z M34,46H2V7h8v1c0,0.6,0.4,1,1,1h14c0.6,0,1-0.4,1-1V7h8V46z"/>
<path class="st0" d="M12,35H6c-0.6,0-1,0.4-1,1v6c0,0.6,0.4,1,1,1h6c0.6,0,1-0.4,1-1v-6C13,35.4,12.6,35,12,35z M11,41H7v-4h4V41z"
	/>
<path class="st0" d="M12,24H6c-0.6,0-1,0.4-1,1v6c0,0.6,0.4,1,1,1h6c0.6,0,1-0.4,1-1v-6C13,24.4,12.6,24,12,24z M11,30H7v-4h4V30z"
	/>
<path class="st0" d="M30,18H17c-0.6,0-1,0.4-1,1s0.4,1,1,1h13c0.6,0,1-0.4,1-1S30.6,18,30,18z"/>
<path class="st0" d="M17,14c-0.6,0-1,0.4-1,1s0.4,1,1,1h13c0.6,0,1-0.4,1-1s-0.4-1-1-1H17z"/>
<path class="st0" d="M30,29H17c-0.6,0-1,0.4-1,1s0.4,1,1,1h13c0.6,0,1-0.4,1-1S30.6,29,30,29z"/>
<path class="st0" d="M30,25H17c-0.6,0-1,0.4-1,1s0.4,1,1,1h13c0.6,0,1-0.4,1-1S30.6,25,30,25z"/>
<path class="st0" d="M30,40H17c-0.6,0-1,0.4-1,1s0.4,1,1,1h13c0.6,0,1-0.4,1-1S30.6,40,30,40z"/>
<path class="st0" d="M30,36H17c-0.6,0-1,0.4-1,1s0.4,1,1,1h13c0.6,0,1-0.4,1-1S30.6,36,30,36z"/>
<path class="st0" d="M11.3,14.3L8,17.6l-1.3-1.3c-0.4-0.4-1-0.4-1.4,0s-0.4,1,0,1.4c3.3,3.3,2,3.4,7.4-2c0.4-0.4,0.4-1,0-1.4
	C12.3,13.9,11.7,13.9,11.3,14.3z"/>
</svg>
