<?xml version="1.0" encoding="utf-8"?>
<!-- Generator: Adobe Illustrator 25.4.1, SVG Export Plug-In . SVG Version: 6.00 Build 0)  -->
<svg version="1.1" id="Warstwa_1" xmlns="http://www.w3.org/2000/svg" xmlns:xlink="http://www.w3.org/1999/xlink" x="0px" y="0px"
	 viewBox="0 0 41.3 41.3" style="enable-background:new 0 0 41.3 41.3;" xml:space="preserve">
<style type="text/css">
	.st0{fill:#68D372;}
</style>
<g>
	<path id="Twitter-2" class="st0" d="M31.6,15c-0.8,0.3-1.6,0.6-2.4,0.7c0.9-0.5,1.6-1.4,1.9-2.4c-0.8,0.5-1.8,0.8-2.7,1
		c-1.6-1.7-4.3-1.8-6-0.2c-0.9,0.8-1.3,1.9-1.3,3.1c0,0.3,0,0.7,0.1,1c-3.4-0.2-6.6-1.8-8.8-4.4c-1.1,1.9-0.6,4.4,1.3,5.7
		c-0.7,0-1.3-0.2-1.9-0.5l0,0c0,2,1.4,3.8,3.4,4.2c-0.6,0.2-1.3,0.2-1.9,0.1c0.6,1.7,2.2,2.9,4,3c-1.5,1.2-3.4,1.8-5.3,1.8
		c-0.3,0-0.7,0-1-0.1c2,1.3,4.2,1.9,6.5,1.9c7.9,0,12.1-6.5,12.1-12.1c0-0.2,0-0.4,0-0.6C30.3,16.6,31,15.8,31.6,15z"/>
	<g>
		<path class="st0" d="M33.3,40.3v-1H8c-1.7,0-3.1-0.7-4.2-1.8S2,34.9,2,33.3V8c0-1.7,0.7-3.1,1.8-4.2C4.8,2.7,6.3,2,8,2h25.3
			c1.7,0,3.1,0.7,4.2,1.8c1.1,1.1,1.8,2.6,1.8,4.2v25.3c0,1.7-0.7,3.1-1.8,4.2c-1.1,1.1-2.6,1.8-4.2,1.8V40.3v1c4.4,0,8-3.6,8-8V8
			c0-4.4-3.6-8-8-8H8C3.6,0,0,3.6,0,8v25.3c0,4.4,3.6,8,8,8h25.3V40.3z"/>
	</g>
</g>
</svg>
